<?xml version="1.0" standalone="no"?>
<!DOCTYPE svg PUBLIC "-//W3C//DTD SVG 20010904//EN"
 "http://www.w3.org/TR/2001/REC-SVG-20010904/DTD/svg10.dtd">
<svg version="1.0" xmlns="http://www.w3.org/2000/svg"
 width="512.000000pt" height="512.000000pt" viewBox="0 0 512.000000 512.000000"
 preserveAspectRatio="xMidYMid meet">
<metadata>
Created by potrace 1.14, written by Peter Selinger 2001-2017
</metadata>
<g transform="translate(0.000000,512.000000) scale(0.100000,-0.100000)"
fill="#000000" stroke="none">
<path d="M1115 5113 c-292 -38 -541 -159 -745 -363 -198 -197 -313 -425 -355
-700 -22 -142 -22 -2838 0 -2980 29 -192 99 -369 207 -527 141 -207 381 -390
623 -474 197 -68 93 -64 1715 -64 1379 0 1470 1 1550 18 505 108 878 482 987
990 17 76 18 183 18 1547 0 1379 -1 1470 -18 1550 -107 500 -470 866 -977 986
-70 17 -171 18 -1525 20 -797 1 -1463 0 -1480 -3z m2270 -962 l850 -238 3
-294 2 -294 30 -13 c16 -8 40 -28 52 -45 22 -31 23 -42 26 -259 l3 -228 -146
0 -146 0 3 234 3 235 29 30 c16 17 38 33 48 37 17 5 18 22 18 265 0 163 -4
259 -10 259 -5 0 -371 -101 -812 -225 -442 -124 -814 -226 -828 -226 -37 -1
-1713 471 -1730 487 -13 12 -13 16 0 28 18 16 1682 485 1725 485 17 1 413
-107 880 -238z m-1410 -703 c275 -77 516 -140 535 -139 19 0 268 66 553 146
284 80 522 145 527 145 7 0 10 -169 8 -509 l-3 -510 -34 -35 c-112 -116 -520
-188 -1061 -188 -536 1 -958 78 -1056 195 l-24 29 0 510 0 510 28 -7 c15 -3
252 -69 527 -147z m202 -1554 c-132 -131 -175 -325 -112 -503 17 -46 17 -46
-10 -93 l-27 -48 -257 0 c-199 0 -270 3 -316 15 -210 55 -321 284 -232 478 29
64 66 109 121 146 85 59 96 60 510 61 l379 0 -56 -56z m493 20 c120 -56 200
-163 223 -298 25 -145 -42 -298 -167 -380 -79 -52 -144 -69 -240 -64 -330 17
-489 409 -265 653 83 90 172 126 299 122 70 -2 97 -8 150 -33z m952 3 c74 -36
150 -119 178 -195 18 -46 21 -72 18 -137 -8 -136 -74 -237 -196 -297 l-67 -33
-285 -3 -285 -3 -27 48 -26 48 19 59 c60 178 17 359 -117 493 l-54 54 393 -3
392 -3 57 -28z m-1347 -767 c49 -28 134 -56 187 -62 l27 -3 -97 -175 c-85
-152 -101 -175 -124 -178 -36 -4 -42 12 -58 136 -7 63 -17 102 -24 102 -6 0
-47 -14 -91 -30 -137 -53 -164 -29 -99 88 20 37 59 106 86 155 l50 87 46 -45
c25 -25 69 -59 97 -75z m778 -219 c-17 -26 -41 -25 -135 9 -49 18 -93 28 -97
24 -5 -5 -14 -54 -20 -109 -14 -108 -21 -125 -57 -125 -19 0 -37 27 -120 175
-53 97 -95 177 -93 178 2 2 31 8 63 15 85 17 173 61 236 119 l54 50 90 -160
c69 -124 87 -163 79 -176z"/>
</g>
</svg>
